<mxfile host="app.diagrams.net" modified="2023-10-19T16:36:08.392Z" agent="Mozilla/5.0 (Windows NT 10.0; Win64; x64) AppleWebKit/537.36 (KHTML, like Gecko) Chrome/118.0.0.0 Safari/537.36" etag="nZOPV2KS0VmC0i3DOsa3" version="22.0.5" type="device">
  <diagram name="Page-1" id="XVfLvVpZ917DHnpt7JiL">
    <mxGraphModel dx="1195" dy="625" grid="1" gridSize="10" guides="1" tooltips="1" connect="1" arrows="1" fold="1" page="1" pageScale="1" pageWidth="850" pageHeight="1100" math="0" shadow="0">
      <root>
        <mxCell id="0" />
        <mxCell id="1" parent="0" />
        <mxCell id="1MdoQol8Fv-7kI70BVvg-8" style="edgeStyle=orthogonalEdgeStyle;rounded=0;orthogonalLoop=1;jettySize=auto;html=1;" edge="1" parent="1" source="1MdoQol8Fv-7kI70BVvg-1" target="1MdoQol8Fv-7kI70BVvg-5">
          <mxGeometry relative="1" as="geometry" />
        </mxCell>
        <mxCell id="1MdoQol8Fv-7kI70BVvg-1" value="user" style="verticalLabelPosition=bottom;html=1;verticalAlign=top;align=center;strokeColor=none;fillColor=#00BEF2;shape=mxgraph.azure.user;" vertex="1" parent="1">
          <mxGeometry x="80" y="294.85" width="47.5" height="50" as="geometry" />
        </mxCell>
        <mxCell id="1MdoQol8Fv-7kI70BVvg-2" value="Google Translation API" style="editableCssRules=.*;html=1;shape=image;verticalLabelPosition=bottom;labelBackgroundColor=#ffffff;verticalAlign=top;aspect=fixed;imageAspect=0;image=data:image/svg+xml,PHN2ZyB4bWxucz0iaHR0cDovL3d3dy53My5vcmcvMjAwMC9zdmciIHhtbG5zOnY9Imh0dHBzOi8vdmVjdGEuaW8vbmFubyIgd2lkdGg9IjIwIiBoZWlnaHQ9IjE4IiB2aWV3Qm94PSIwIDAgMjAgMTgiPiYjeGE7CTxzdHlsZSB0eXBlPSJ0ZXh0L2NzcyI+JiN4YTsJLnN0MHtmaWxsOiM0Mjg1ZjQ7fSYjeGE7CS5zdDF7ZmlsbDojNjY5ZGY2O2ZpbGwtcnVsZTpldmVub2RkfSYjeGE7CTwvc3R5bGU+JiN4YTsJPHBhdGggY2xhc3M9InN0MCIgZD0iTTE1LjkxIDcuMmgtMS44MkwxMCAxOGgxLjgybDEtMi43aDQuMzJsMSAyLjdIMjB6bS0yLjM5IDYuM0wxNSA5LjZsMS40OCAzLjl6Ii8+JiN4YTsJPHBhdGggY2xhc3M9InN0MSIgZD0iTTEwLjc5IDExLjc3TDguNDggOS41MWgwYTE1LjYyIDE1LjYyIDAgMCAwIDMuNC01LjkxaDIuNjdWMS44SDguMThWMEg2LjM2djEuOEgwdjEuNzloMTAuMTVhMTQuMDYgMTQuMDYgMCAwIDEtMi44OCA0LjgyIDE0LjU1IDE0LjU1IDAgMCAxLTIuMS0zSDMuMzVhMTYgMTYgMCAwIDAgMi43MSA0LjFMMS40NCAxNGwxLjI5IDEuMyA0LjU0LTQuNSAyLjgzIDIuOHoiLz4mI3hhOzwvc3ZnPg==;" vertex="1" parent="1">
          <mxGeometry x="640" y="520" width="44.44" height="40" as="geometry" />
        </mxCell>
        <mxCell id="1MdoQol8Fv-7kI70BVvg-3" value="Merriam-Webster API" style="shape=image;imageAspect=0;aspect=fixed;verticalLabelPosition=bottom;verticalAlign=top;image=data:image/png,iVBORw0KGgoAAAANSUhEUgAAAOEAAADhCAMAAAAJbSJIAAABJlBMVEX////XGSEnbnAdUVAnb3AeVFQmbG0eVVUlaWofWFgASZDTAAAdUFAlamwkZmceVVQAR48hXV0ANIYiYWIAOYgAQ40AP4sAMoUANofXFB3R2uYAO4kALoMARI7VAAsALIJ7k7mRp8YAPz/x9vrh6vP98fL7/v/0y8zWChXr8vgwWJf54OEAJ4BwiLIAPT3ura/ok5UAW1zlhIagss0ATU387u/21da1w9hDZ5/eW14AX2HaQUTgZGf1y8zur7HwubrcUFPYMTW1wtdceakAEnnqm53idHbV3ekAG3xObqOLn8A2X5sAAHXjenzc4+O8yMh+lJSkvL3YNzqpu7vXJiuDmJhNgYNqlJanvr+IqKlFe3xgiIplgK09aWnK19dNeKxaeHg6X19s8jjtAAAeoElEQVR4nO2da0PayPuwcV2rBqspJSGEM4EIEVQEBY8oqAhUtNVu10r92+//JZ6ZzCEzOSAIKN3nd7/YbiJJ5sp9nEMS31//dfG9dwOmLr6//+vyP8I/X/4/8MP3bsDU5Q0IP3xcOjBl6SPc/Puvvz4urZo7VtGe6cpUCT9AtI///Hj4evPU62ma7kOia1qv13v69+HH41+QdaqcUyP8eFA6+Pnw9Smv+QaJrvX+fXj8WDpYmlZDpkL44aC09OPfnj6QjePs3Tz8VZqOLieeLYBlLj3+2xsazhLt5sffBwcfJt2gyRIC5f18eBpslwOl9/WfSUNOknCp9OFhBNP0hPxZWppgqybmhx8ODn48ebc7u7F3XK+fnJxsnZzU68frG7uDIB9WJ+eTEyJcOvj5r6txZjfqFzunZ3G/U8KHR9tb67tZV8ibx4PVyTRtIoTu6tvdu7g8DAOUeC485yLhcA6C3u/v1DdcFXlwMInGTYDwoPSQd7TveOcUwMVd0WygOaDg+6MtJ6U2EcaxCQ8OHuzmubF1CuGGoGMw/f7cdd0B+XXp4MO4hB/Gkb+dfBvbh8DFPEmgeP0N6PKobotAOmAEYWwMGYcQpAebfe5euOGZdmhKjpCY4qLmnD93dGy31dLq3+9EWHrkS5fjUzseiiVnIGbWufxg5o6L69M5ZxwCh8xt84rUfpTehfDgLy5+Zi/CSEVUHXF/7tvlxbFbnLRkr75zem8LSUDJ++vcr3o/D96c8OPBA+d9O3FWfaCN8dPt40FZnb05GyeXZ37u/uT8hyfcb76C9PiWhH+V/mENdOPIH+fwwtd190TuLWYAZiDD/rMt9u/aY+nj2xEulf7l+XIs3v323oh0WLL1fRYy7A9zjDelpTci/OuAVWD2mtEfiBI7r8TDZztho1XYf8+mSO3x4BWWOjrhx9JX5qogvlC+uP90ZON0ysb2HMt4yt6xr68IqiMTrh4wIfT4njYG1GiXg8Pm8FI/s4w1579k/tJbXZ024cGj1QHMHjF84e3x1WfJ+r7FGPczYVV/HDVvjEhYYnLESZw6oH/uYpJ8UPaY+OXfZ6xjVEv1fRxFSjf0QowC4/6J6o8yntIr5PxMVL0pjdTmUQiXVq0YWqcKBI4yZGYfWY7PKKN/37qJvdWlqRB+OPhpueA1iaAg2E0qvrjJVs66kVZFroMibvKEbIzZOCSA/rkT15ZNTLKXRI1h/7aF+Dg84tCRpvSDnr8ez5GLXk/DAXlZn/O7WOrw3Y1hCZkguk2uGA8fuzVp4rJD1JjLWR7xfVjEIQkZwCN6Sy+nr0Akx/dxYjRWFfcwJOJwhBZglrgge7GpS9a6rRejIg4VaSzA3Tnsgv6zaYZQp1wQS/XvMIhDRZqRAPfodS5d2zFF2aP39oju+3EwEUImiq5jwDBjK28m2VO/A/FxCETf0kty8OgEfEMXZOSSIJ6SPfrP1Rfb/yLhKq1kCGAu/LYuaMm2E/FFwCEILUCcBc/eKkk45YQg7pM9WmlcwhIptkmQiR++HyAop3ArLF98Kn0Yh/BjiXTod8mpT98TECR/0g4azO9KHwcTDs4TZEgmiwfgLfN4LyHRwMqLt4MD6kBCK4we5mwu/n5CEWmn+Ofqq7PFZ3IOXDTFT9+FySbHJNyQuj9fea0fVkiU2UHnzH17Xx8kUvfjtEyy1s0gxAGE1AnJGedmAxD0/EmDyI7bg9cQrhIn3LDfsvcXnPrjJGfoS961jTdhiUzufsvxZj8LggMDrY+fvBO/F+HHChk4xNWgf8vrau8iJLiTMf8HT0Qvws/ERrET+q/fi8VddlGCtlxx1ctOvQiJje7iMHr4XihegsvkOKltPO3Ug5DG0X20uMA/rUHf1wuONrQn98MjnroTrv7Eh+G4PFNRhsi+OTwVDuMc5tXLcCckuR7bKDM2MkOCXZHa6Vd3RFfCAzJucYps9P69IAYLCYJk3cZnd8JVF6lo/CnGmrieohxhO8WboHhzgXEjpGNrc+HZtVEoWbQMh05o/HRTlxvhZ6xCFK3CZ+9G8KIQI8P15FNpOEKSKXZnOI4SQcmMBpvH4Qg/47GnS9PKc0eep58B2eAjhZsSnYREheTg2cv1rCBPyp3izX+GIsQ/RgbATEvOpsS5jPHkDKcOQhJI91CYyb1f24cTVHWFSd3862UdkpIbq3DKk9gTkLMwGw9vKi8Rlr6jX2IVfnu/lg8rdd4TX9QhGeNGgfQPUCHoDIfZcPrVHk5thJ//Qb9DgXRWC1JesBJxVsu/QEgWPe3EZ3Dkwku+hdnC5sfngYSf8EE4F75bo0cSNCNFymd71ucJSarAx8x6LiTC62OgDknPF+t9tssZS1BhQ8YzHkrehJ9/od+gVBF/89UIrxXURwifoq1exZuQlKQ4zqx7nnLW5CjHxppfn70JkZFmzTKBFkI+tZMqp8pAGs5zoz8AybymZWUh+ZrDHIKmo8gIOG+mLOHnn26/h+0IXRWCQK5U+6lbV3B/4SoUqb6iYa2CmCi/CskunE54M2UJSSS9jrM6h5JvNYKCIMhF+5mTMtgdbGScDyAOI9WEEEm+6ki77LBN1jkz5QhxJA3zRmpKviDEBEGxkegBQRSEqEO1Q4revVJeZd0O2ePM7nvJnfDzKvo7NlK+nlELYjsmKCn+xOUAUKEQeo2F4tOO8WQ7J/esVp68CPEoKdY4nwyr0UgrKIgyf15D7gPzVSbjS2PJNtto7dNnV0IynzbnYqS+RkDS+5KQ4NSlhpRqQxEinTeBGCh7nOH940GILGbDFkmRpIKCrgJfrLE7i7KoV0OC1H8TiMGChs3wYhi2C2UREjfENaltSrsod3WfIQqhlrUvHwGRUI0KYs33/oITANp4qrgRkt69WR+E7YvX2nLTDCxy0tpXVhIZXwYQCta+jNqotpjwkanCsclWK6Mz27q1rXKxVO10GuxrJ1rm/dTUqkqDeAac3+3NFKiXiPvBOkv4mQhxQzN5OmrSbgTkQk0WBdFqviEB5eVBOFXInkb3vBA9v4r1M7g1ffm84dPa0VBQaMHtpnxe9elGNKQYGdDyTrfAWHi+WFAiUYPAZMrtQALANGIhJRQpot1JJRAIGLaQDmWXc65fFOszQ4iy4YZbrgA0ZmoGCT5AA6cajcK4ExGEBKLWagUDpMZ8JyEnGj69LYQUSQg0fH1FEsFvumi76mtHJFE0qoYcisSYIiJ1ZSQNWZDbJq0RTARjIHZrzatoICQKcjADE2giEJJFUak51WgOZhBHfCi5EOLOb93VDbVYEN63FsjwBtnXlkT4D0j5BVNlmqC0sSoDQkHVU8VuBCbLzJVQ7BZqvk7RANsBFQQssN1sJZtizCqTVMFUXlMSotA0NbXRjAH7r54LoGJSu5IgKlomICWr1Q64X0rSQWg6Ihl3uamsOgnx0oQd9EObG2aCill212JCAlcw+QLKEiD8oF1NWSYW3JZiBrzL5SAg7HdB0xvmT1IKIGx2NZ9ubue7VIfJBDIEVbGspCgJwnkKaQvASk0xZf6mBRCDjlKBi5C9ilOHpCg1x0lz9iWILSVgNhHmhiba1ZFRxQVKHbOoATUBzYsgt5hBVw0JwVTBKvXA4XJHthrXJoSpBA5X+ZgYJF4GCIOkICxD6yEnAs4SddRR2L3QuKnuYqUV9PBy1ix/4vbxCzWgoDQBCnDUYl2QESqoA4LwrnfFAo2LUBMNRCQUmD6Xuc20rUYI+8Az0S6DJbRqqLx1a80b56yj+Jb/dCFEgWaXGxCg0lCCqPmdIC5hGoEAamonYqaQTAGAgi5ko1GtVlMBqYAJxRhzGrAd6zLblLAbldquhPQFaJJIfgEsKopuKi+nYWZQ8bbkIMSj+e6BBpidhEwkD9MfvGxbxlmwrJhFDYTpN4G0oTTbRQ0RcU0BIYjbpoRqi1igF6EgWjrMhNwIr3NMtfnVSfgLnevC7zqMmIwI+Fog2EG3y4RIQ6BeaqZvRBwXBX/julaAMMRu12KOLidPKFFCgyd0qfbRHE0Oxcibip3wEx7sRqHUMbHdl4lxgSoNmktSLuCAAbqxMIMA8sAECFugQ80Skv1uhNWEJEPBfrDuHkwJIXkw5tQ1lAKbJE6gGzGQsXSFltutBOgiaj6QvaKONPwCoW4jbHWkwiiEwDGgYHfZYENI3mGlJFmYAckxFKx3ZVpdgRwnd6ohkhahZwpyBuqw4OivVwM8YXkAYSZlnNcaejvGEtIw5Up4HopCIbbDVmOaI5aW7py/skRjKm4tAu5aN0ZLGx0Wpi33HOVGyHROGMJGt1DowGhTG55Q17Dg3XOMdvRfdkJcd3ski7zMxK6iLIASytqOwVIMGiDb7xiNUDMSSh/ZOEMIMq04iNAuh2yf4fGTnRA9OrLH9kEsySjMWEwL+IooWYUKKNuUKsyHgmA77EVCULUl4f+0Zdr8LlfTjERo9vvIVOkPByFK+HgUyj5hoQbYhnZFrlsPalXYKAjKDhmr4J5UlaEIQQYPkDs4BiHKA3jamqZ8G2HdPR1WlQLTsGqUazcwJtjOBqgFgtavyl/UoQlB0UB384TUKoYhNHM5WTX8YCdcRu6KCnTHAgzQm2dGSnXBijM+M9eb3lQDtzyItagnz1s+RNhizwMImYDLEOJYnQcn8ySkduNBuMWq56ud8JNm/cg5ud0Jctm8c8WeH3QkzJIxI4MOXajbqbbUlIEmAOyEDV6HMONDwrwCsmBbzajJgmGIsVqn3CKENMWyOswH3Ko23gDvHIRM0caXNHq52I2BBNHu0GCT+UIurKb6XTjsLQnNcgZEXFEQ5YCiRACg1kjWwJ9EsdYxx2q0Mr+dqaaaYAscqOqNK+DaAaVw3tGMWEy5Og/ly31DiomS2GzkwaHmhmwUwZGZclMAPRG522HvFUOIyra7io0QP+JkDqzyY6WZAuQTY3KgYO2jdxYmRyAxSb4C2ugIAThTE4DlgAqOA38RY1LQvCHVq5iAfqrAgk8XA7Jo/jlwXvSp3UhQ6oKEmA8azZSq+fJGt1brAjGA4asC3Wj5UvgvhtD08cKFyRsPwh0noQ+n1XzeZfqFJl3wZ2jnulpOpcrVDHMcOVC3bduOzKDZHX2MeYz11xL+McKV3k82wk94OBgRnr5fK8eRwYT/fR3+FwgHRhpCaK7b+BPW67nJMZstHIRcPvwjlrM5hc/49li6zNY0cwNO8yrJV8d+zfcQcjKQsIKSnUflPZbkq335/LVT/aPIFltUW5X3JyR832JyD/zqRUMJSGLgLQg5F/u+jMlshFzAnYTo1XJbFvgRtmnJNZsIbkt2QtTHx+NV/HovHQ5jq6a08OIJneyA+9CvynTE2+50cBbjLQjRlAse9H506BDPj7qN0+S/fLmKKkogEEqcf0F1o/blvBCAcnX+BY8ziufwR0ro6kvUduUynHGaIhkRc0VlHC8z/fnJTohHE3OuY21quQ36aoLRb5DCWKt24HKoWMqacwYRBXSjamV7p8bswr8FYZyZBdZ/2QmXb9Gv0H1weay5FhNkflUJnLCwjVgbouJzyhsRZpH9ocX32qKDEE+QonUKp67NFA3OwYB72faoCefKN9+bEXLjhL2KnfATXjyLyraw83g4tB3gDBD27fk9RTnhRjK0H2bGWuTGlaVPTkK2qHFNiHDQkDVTOGxqWw4VEh0jplDKw8ZSw80ChhaknHsyiOEgxAnRY0jYZxolN7tpRhrOTKsh9/Vfw2YLtTDW8jFuQPjBhRAlxF3WXTlpBQQhypiRIUpw5SVjpk0p5IijUADhMFaqG8GxCLkgSdMhQ3jH/C7ntoi9y62+VAOxtiFag5twciPWdS2wB+hQZ5ZUtOWIYyWQzp9wUP2+m2OXDH3+5CBcw+nikp0r5gSYpbWYxpeUlWpSZld8NRRspFq5GVOkGh3tw4Rap2YY/bI1npVJRs7PC0LSNAy9GRQi3CCoXm2Gzs8TRgcbjt7qyEFwdDEiG0VnTFpn/UurOAlJMEXT3DmXRy3UEFmH4TPHoGXN3EOv1ZZQZC1HztupVFEJRft5QgistBqLSqIoBajWy4lCsaqmhFAU7MnA1URSEy2MRytrjPNuudroh4LRDhyYLRrRiBjM+IrgomLBaRNcw5/cCCs6eyvcnkQAbkcH09VorAkXSFhmmleQhpuhiHl5uBxI0ihhO9pudkMKaF0URcxGAc1naYZYAPcKDp4KslkJnsObVo4W0JlVcHTf1766UuCS8nwrGopGY4bTXo9Y47tzJcShxvvhWGiUXfr/MPUVGcMtB82R9naEhCMtIEhdSohGQ8uRmCCY6/O1ICmIWgVZaxhd4Oai0a7Val0B3JdqgYadRsA8IlOOQcJmogrU60wrWXN+NOcINCwhDjXcCjhO1AS4BGq+DgwG7yHxE6gCUKSi1pxJJ4KmhdlIk4F1AlyyVQ7QKUnDXCUF8qtVFmqSaE1ZAPWayzzgrJ565RquaZrDfQYLkCFcfkZ/RMu8426dYHApPCNSTaCpzQi4ODKmTAGuOdEiokxDCVzjlfTZskUG1EbwJEmr/umbS9rUAjOJ3AkyRXA7hrwdEApuCy9NuWArmnzajfBTBf302H2iGwowSoks9UqY9xIYLl4YnYrAFXfloDVDBCfBzC0+W6QUc6qqKVEGtazbCHVBZFIruIh5N0ByEl0cEIm5IoqMMN1UXAnT+HEL9FiX21uTquD+R6CKNAWXNyqsVk3DBVFIg7c7Vkt1UlDK5U5IVvoOQk0W4Rw5aHYoxTaXJQTWH6u1m81mv98vJg0lYs5GGqLrpJopqGNBOoe3rlZKHdFcUuP6mDr0DrQiT8EhFNxsFE3VEFRXXhJjtWQRSh82rlhs+Rw1TV+CN6UB7o1ipKy8BqgoIZySBLcI3qiOKebEKyCMeD2cU2dXJvp+fXIlJI645VmawsaZM7FNiTzrAs20a/4L0TMBwVmX2GsaVIhr5txaMNgukxXfDCFwh6CTBVqpl5Gip9fiaKNXcSf8tIBKqF1O4Zw04NoZ3ZeP0HWCKtiTyPg0tDoDlAAuDzLZCOHSTLiKIWHOJ8YC2PJYQrhm1Vm1DCDMoocRcLF550VIxmqQ07r0EUHpKcIEUFboqgsd1abVkKnbasDl6S87YQsR+lpdlOaFqLlqmyUEPTWXIn4AYZ0Lj4+LHoSkNL3gbJoTcHMBSluyFiEnzaRflM3sBjQq2WdmzbzI+mGGdojVpBA1H35r2gjbklutDggFD0L0Bghcsmlryx6Ey8voeDSk6Nq/KMM1BXqIwYDRtJCRxKD5XEXILZ4DQpsO6RNrulqExgrTuN0Pnf7sTbjLvWiGzRU8ISncSDR1qb7zoIiR/09mH38SQaVRk5Bx5mXnE3wOQhUUsEynCdSv5lABSwgHuZy2AAldAYnVYSO9XfMkJGa65b5+D0rXXHjBPsIG2i/QFfywD+lIWSneSlNBYOiZGl0/pSHTZgnho0aS4055E35jI4fOqZAnJGUNikyunURopny8NNeXkkWEAFc0uAM03R5pmhLw2cwX6xy1GCQE5QRb09jMFA5SGaL7OBDuD5Hof5PmCZcZ+ZTG0fQy59WFykCeqGPMjTCDQo1/DLMJOgpAh4pFmA/Ce6AXrMfB2jFopYDQssyOInDRtPqlMYBwn3uU+3mZEx+/+Yx+hAp11w4GsENuQMpcvm8xFyO4d2SKXoM9IaBYpg5IRszua9C6TbJQMNffCGShXtGnwSU81pK48hfo+F6EG9xLeLTKQMI0Nn7+ZRqsAJOzlS1cANUluNy0bU7g6FUxBv81TZeuokokzMNx39EHlQefEPNpBdzB1vtfNJNXiBbVvA7ibfOLec8AIe8BWPCDeTjO3A0mJNMXdc+EAXhsTyfrXZEZRcxEJBCLAgKom40o6kl1IqKIHz+BqxzR/THESBuNVsgS+llThtauNgxTYXAhmCArklEzAldlX15tJKG/98uOR4dRqqBT87+WBxIu4/l8tN7bTYm6+UweJ50IO/Sdr0XhMGNMkmQJ3YqkYhiBoFhW1XL3XMCm10/IslIsl5uFaA0/yiEDRDmUwIupVSMkiaIIzgOt/vz8qhAKBAKJq/OQDXGHnZHxPVVeICSV24VnHyr5xf5qhdYVbzzVphBUlEishnVdFDW93JYKV1dC30qkarImBAtRo291jpvBUEguWj3ovhGTRKMGTRRNVVZN4a++y7/k83HtBUISa7JzXkrUVEdd4Zhv0DKZjPUWArTUPJ9xvJdAy2fy3Mky1rMzpuj5fH7QGCmUHS5V5O0qdBKmcV2z/Ye834S8+xCr8PvLhGvP+NAZf7MnEfSGT/KCIT1t53ESLm/iwYwL/lVvMyp7vAofHCp0IVwj77lGXyJ+p2/KDCun3PCuvuDAcSFcJiNSW3/AG83QMij6xn97tvcgpJ54OOOvoAURH9sZ7gVpLip0I6Th9Hjmg80l3wly8UJ3QqpENIA1u4sx13kV2Gtub8Jl0onK4jPM6HvbsrYXet8OT7g8j4/Zmmk7veTrtd6mK4s7IelikFeWz+TroMmLoEk6e7ZXpIMIl/FyU/oy4Rks3vAXqOh3Sm6c5cxAwmd83AVGnL0XmZ4h88LPbvv0xcWRCGmwwXY6ySWnk5Frm406S+4XCBfxtD6p3R3vAnlnObF9OsUjzAwgXK7YPsMyG1+zIoIL7hxN1b89bHQAoWWnO7P3pRnynbs48R1PGx1EuLhCutvEFd/h05wecpbjnfDJI44OJrTiKf7IwuwEVHLLSZ9AX/C00YGEy2mS93FWnJW+4j6ODHTA+tnbRgcTLm+S7zvWCeIsfAniiEQZEt3vBtgoIFwcJCtkaBIn/vAMvJcWf0MsTL/32ksPZBhMOP+LnPd6VhDpJ3MJoLYwEOEFwsXKLTnzEUF8X188ctzpX5WxCK1oQ7+p/q6I+45GgE7hWISLy5sk8fvoV6Pf7V302dO4HRBEmRcIfGtra4trpiwy/7X+WSSjNgziO41Nbdzn7IA3IMqsubab/uNbe1Ho50gtG3mXb+a6fBb8Kf1y81+yUiALFTqdRXwx/u3tO1Nb9Mv1FPCFPDGcH0KZp2mRxupc/K1zP7ly2Bo0yldeSBRDEy7OL1DEbXqhN3XGjTkcY5gPu/dWhgEcjnBx/jdFtIzl8O0slV40fkiXMfVW5odq+3CErKESh5/L5d4obWSJ+zOfVPflhwRcHCKWmjK/QiPq7n2cWOqbfGi9Ho87PaNXmR+y5cMSrs1beZF6/Vxu+tl/d59ejIluw6QJQrgwtNBhDcYvgDdOdzz8wp+jV7L8/mZz+GaPQLiweUcvsXdvqfF6eqZ6/I1chovddyMAjkS4uHlrXeWaqjE+rZmbjVPrGnNM/r3dXJwS4cJi+tla+3FM1TjnD0/BHTcuqYGG2VkF/Tk9CuBohAuLlQUaUn3ZHXqLw/6zrcnaKuCL0xt4z3TYeguVkQAXho6lNKRazgi90WKc254c4/q+xZfjqqe79LBZgsbSEX+/trbJWKrvIkdNNez3X08krmbrZ9Q+Yc5lSif9cXPk9o5OuFZZeGKas2O1BsSc061xv4K1t5OjhgGtnx1R6P2ujN7c0fwQyUr6O3PZjSOGEbTuaIxRjo2LQ3+c8s35c9ww+0N6/hWtfQ0hSP5MwAG3fZ9hDOf8uaP6a1xy4+Kb31IftHqOr/c7/aq2vo5wYX7zO7tmcO/IigymJv2nF3ujUO7Wd+5ZPMB3z/HpD5uvUeDrCYEaV27YFmzsxNkGQsi5o+3jITpY2Y2T60M/a5zw6EM++zy9UoHjEC7Mp597XEsv7hljRfbqj5/t79TXPTize8cXl4dzNjponkf8uLP2/CoPHJdwYaGyecsvSD4+ivOQEDPuBzJ3uH+9fbF1clKv109Oti52Lk/PzD/kwmH+93H/2QUfj/Xvm5UxWjkO4cJaJf3AM2ZP9h2QZsMxKZG4nYzi2XOqfreSXhunkWMRAsb0/INtmfLuyZHd7oYSYJxnO+v28HT3ewwDRYTz40p6xc4IzHXH9K5hMaHHgmLB6a53C+mx2zc+IWDc/N5zNA7EfzOI5AZihoFh+uP3+xcu9Z52lx6fbzKE8wvpzecnZxN9u3tbO0ff4sTxqE7D0C1xBLr0SCm924nwTYgQSGXz9537d/Cy2Y361vbO0em3+zAOM3P3h6eX2xcn67seVYF+95yuTKhlkyKch8b6fDORF0A+TUp9pkyQEMhm+vZmvC8a6k/fVzYnpT5TJku4AKy18nznjDvDSf7mdgHgLUy0TZMlNKWSTv++vRn1y6Ta0/df6Yk5HyO+lYnL/PzKSmVzc+X57mk4i9V7d0B3mxVw5PzkmzMFQiKV9Gb69/P3u6ee5h6AdC3fu3u4/Z2GdCtTgDNlioRmo4HJbqZXfj8/335/uLu7QXJ39/D99vn59wr4W7qyMj06KFMlZKRSAayMgO03uvIUIs2Myf8I/3z5H+GfL28VS99P/vuE/w8KRQLxaz987gAAAABJRU5ErkJggg==;" vertex="1" parent="1">
          <mxGeometry x="485" y="520" width="40" height="40" as="geometry" />
        </mxCell>
        <mxCell id="1MdoQol8Fv-7kI70BVvg-4" value="Yandex API" style="shape=image;imageAspect=0;aspect=fixed;verticalLabelPosition=bottom;verticalAlign=top;image=data:image/png,iVBORw0KGgoAAAANSUhEUgAAAOEAAADhCAMAAAAJbSJIAAAAkFBMVEX////8Px38MwD8LQD8PBj+2dP+z8r8OhX8Oxb8KwD9b1n8Ngr8OBD+p5v/9PL8JQD+1M7/7+z+ubD/29b/6eX9gnH8RiX8TzL/+vn+wLf/4dz+sKb+o5f9mo38TC7+tKr9iHj9kYL+xr39Z079dWL9e2j8X0f9cl38YUn8Wz/9jX38VDr+z8v9lYf8aVL8TDAPnqrGAAAHzklEQVR4nO2d63byKhCGFVKTmHiIjeeq1Wpb291+939320PVDIZwSIC41jw/2+jiDTDMDAM2GgiCIAiCIAiCIAiCIAiCIAiCIAiCIAiCIAiCIAiCIEjdmMw288XubRxEIQ1JsNxv1/Pp88R1s6qhO1u9vpOQkij2veYZL4gjQsPeePjST1w3sBzpYDcOSRQ08/FiEjZ/X55dN1OXpLOPaexx1F1V+oQs10+uG6vOZPrWI7y+u1MZhcv5Yw3X9KVJfUl5fyIJGT7OaE2HMRENzhwi8rZx3XQp0iGN1OWd8Om+77r5QroLbX0njeF25lpCMdMlKaHvSEwWXdcq+CRtqjH/WMiy5VoIj1UvLq/vgNd7rWU3JtuwEn1HyLKGLkB/VMbCsAS041oQy7yKGZiF7lxLgnxVN0IvkHGN/LhJm1Yu8LBujGrjxnX3VU7BG0FcEw8nGVezSNzjkVqsjMk/UwIPEmkNJJrrwZNE4nygTvYmBR4THa7X/rYZI3MjCFKnAl9NLBMQf+wy6zivfqG/J9q6E9g334NH6MKVwGRUsS/Klegqf7M1bWUueCM3LurKxiQ8E7VdCEx7nBdOs0islkTi+XDgQGE7vzHed+u/1pX+UCiRdrLPrznfGtgfp1OeHaXACZmJcm/eGHxtm5Mqj4ZW1R2YcO1oDNuyE3QinWef7nPndmjbQf3h900P5HT7xZ3ojYDHwn8fwbddgUnBWh+9gkd/C7doyE/2WZ71OhJObQpsvBYthRGwCpvCRSUCfvW64Gu9kU2BaaG7BvulUeT5xMDn7Ba6EHDGGqawCw9vG6SsuVb3QA8Y3k7hnPUsBhmpYHMXvm2+2W0G7+DB72I/l9qbiQvBIsdMGX7XQOuxEYQqPngfJinolNy3nTQ5zzOrfbHVbVpcE4smVm7TeSaSgM2JJ6EnH9tybITv+vC2QRYwyR+mXhMsK2IXthnasTVJwbJ8wYfhTr6rAl2DotX+ArUTYhTb9EtbwJSZ5Q5AAlZ7kfk64n9aUbiXKQRipkxeqBWDfu7yzBH8jI3UYiqXAobuWCunE6FlXElltYiNYSrXFLH/DYOFybdUiVhsI7MoCviur1vgukGr0ZJ7b97SfA1DdyyZQiQv2Y9N2I95S2D5OTmRO0Lz2xgz6SwwARLmjKkkIM2bb2zzvtR8BQPb0oLGrLKfmzCf8+BqL5t6jc0XMHxJp4GZaOcFSISZpaKUAfOl5uPgd9my2Dv/G6gIQTLnRb4armc6rcgOtiL8X/DRbNgMA6GuwgaI8T0MGe/xCvS/U8L7z0BhD4uYzmWIolQA9Msa2+uKwERXCiO/Ga0NK1wp1Y+GnNQpBWaWnwbOwX8zrHChtKPGOFmff64bk6qSiDdvGDemsj7bHzBAuqROmTSw2i4dNazwTe2QQQRTp3+uG4w7ilOT9woNx/lLtY1tD7ou57gk/sj+ratYkEMNh4hScWoG6Eees3QhqDlUWO3PCg0X86tu3TN7S8cMSLAHomVjlatCw9GF8t49DAMTn00Di1OTlhUqV9Aw1v0nYlb7TzXTVcM+ZLosJX573rmxUH5lphWqH4lhMoC7OCAZ1EtyqOHUvkatJSwRnam47rkKDdtSxfXwCFz+1Hy0PIWG10OpdDADAW9dMqvGV2g42/ahMUyZ1Kmi48cSmhVYWEvABWYeVOLde7ymYYXyqbYMMHPYEGxmFwM9IgMouyBniWDuSG1e8TC+S/qsVXLJ+N9lFBpPCU+0FDKpU/mc6z3mCzJUQ4G/doHEjHQOP4ee8R1Eid32HJhCkRILRmR8K181YP0DJkgl9yBzYLLMJlBK/WVaBjox1Z6IkfmTCdzyHwGw6lR7mIYWDrPx6pQFwNSplmt0xLdQ7605EaH/rbQ5kBVo41iCsDadpzAbmz/rfomVQ+waIeKdwkQjCDt9iZXDz5pzCCgUlzfm4i1tCJSoIRQrbPzTUgjrO8yhN0yhQr0IyrzLdkYv+oEKVTZFr1grEk70IiigUGvJt1R82VDeD8tTqOM3MGVUJhGc9DGl0JadObVPJzFcViFTNG0WnSPOpRUar8IAaCSuyyu0esiyr777UFYhsXxmXX0mllZo+f6vVNmcllRo9eTaCZnDAxUqtHQOIctE1Tstp9DFbUMbRWNTSiGxulJcGKqN0zIKAztxIctkrBQflFFoeu+eh5p7CneCP1QUUosOKaSj5Lx5fnzFVzFT0Ye4KabYlb2PVQbfwjkZPt9mb/o6YSe/xiMZlawdEdNzfEH0s/DS9ZLAnUcX9HWu7pYndGZGb7SqvpsVCPwRN8A8LXO9WA+Bh4Eaa+5CiHC30rM8+UYsas+5kbmRLKu/ui2weNGHBJOPqi8YjJZ1u2B/Ua1JpR/1u5Z906xupHr1sTFZuu2wom4kTed363IYBFV0o09eXQvhkwwVf17mHo++17UDz7T25YYqia3nRZVZjfStakTWD/FTZaux1lj1iL+u0Y8FFDIZ/Cr/XIlPRy9u77VW5GkYKnSkR3qf04cYn1m6g0+Jn1079h4h48fqvhvpYLukpEilH9HggX8870j3qbMb9SiJ2AxpEBPai34Xm0cxLoUkrfnX2yh7IXIYvA8709nDTT0B3XT2dKA/S+sXNyAIgiAIgiAIgiAIgiAIgiAIgiAIgiAIgiAIgiAIgsjxP9ZsdgpzAErQAAAAAElFTkSuQmCC;clipPath=inset(20.67% 20.22% 20.22% 20.22%);" vertex="1" parent="1">
          <mxGeometry x="352.86" y="520" width="40.29" height="40" as="geometry" />
        </mxCell>
        <mxCell id="1MdoQol8Fv-7kI70BVvg-7" value="" style="swimlane;startSize=0;" vertex="1" parent="1">
          <mxGeometry x="240.15" y="200" width="509.85" height="260" as="geometry">
            <mxRectangle x="240.15" y="200" width="50" height="40" as="alternateBounds" />
          </mxGeometry>
        </mxCell>
        <mxCell id="1MdoQol8Fv-7kI70BVvg-6" value="&lt;div style=&quot;&quot;&gt;&lt;br&gt;&lt;/div&gt;" style="shape=image;html=1;verticalAlign=top;verticalLabelPosition=bottom;labelBackgroundColor=#ffffff;imageAspect=0;aspect=fixed;image=https://cdn1.iconfinder.com/data/icons/unicons-line-vol-3/24/docker-128.png;align=right;" vertex="1" parent="1MdoQol8Fv-7kI70BVvg-7">
          <mxGeometry x="470" width="39.85" height="39.85" as="geometry" />
        </mxCell>
        <mxCell id="1MdoQol8Fv-7kI70BVvg-19" style="rounded=0;orthogonalLoop=1;jettySize=auto;html=1;entryX=0;entryY=0.5;entryDx=0;entryDy=0;" edge="1" parent="1MdoQol8Fv-7kI70BVvg-7" source="1MdoQol8Fv-7kI70BVvg-5" target="1MdoQol8Fv-7kI70BVvg-10">
          <mxGeometry relative="1" as="geometry" />
        </mxCell>
        <mxCell id="1MdoQol8Fv-7kI70BVvg-20" style="edgeStyle=orthogonalEdgeStyle;rounded=0;orthogonalLoop=1;jettySize=auto;html=1;" edge="1" parent="1MdoQol8Fv-7kI70BVvg-7" source="1MdoQol8Fv-7kI70BVvg-5" target="1MdoQol8Fv-7kI70BVvg-16">
          <mxGeometry relative="1" as="geometry" />
        </mxCell>
        <mxCell id="1MdoQol8Fv-7kI70BVvg-21" style="rounded=0;orthogonalLoop=1;jettySize=auto;html=1;entryX=0;entryY=0.5;entryDx=0;entryDy=0;" edge="1" parent="1MdoQol8Fv-7kI70BVvg-7" source="1MdoQol8Fv-7kI70BVvg-5" target="1MdoQol8Fv-7kI70BVvg-17">
          <mxGeometry relative="1" as="geometry" />
        </mxCell>
        <mxCell id="1MdoQol8Fv-7kI70BVvg-5" value="Nginx load balancer&#xa;container" style="shape=image;imageAspect=0;aspect=fixed;verticalLabelPosition=bottom;verticalAlign=top;image=data:image/png,iVBORw0KGgoAAAANSUhEUgAAANEAAADyCAMAAADk3NBFAAAAnFBMVEUAljn///8AlTVCqWIAkCYAjh/B4csAkzAAlDMAjyIAkSsAjyUAjRz5/fvA4Mn1+/fo6Oigz63J5NGLi4vX691Trm2DwpV2vIoon02u17rw+fOTyqPU6tvO59aZzailpaXz8/OWlpY0o1ZktXzm9OtVr29uuYMWm0Tg8Oa4uLja2tqt1rk4pFmWy6VGqWQAhwDExMSsrKzR0dGHh4c56wiyAAAKGElEQVR4nOWde3uiOhDGkwgNRLy2BS9trVov1dbT7fn+3+2Adq0XEiY3JJz3eXaf7h8r/IR5OzOECcJ1E7r1CRhXOUQPvTiJew+lHKsEok5MQ0YpZSGNO/YPZ5+oxxj6K8Z61o9nm+hu4KFTeYO+5SPaJXp7DAk6F/Ef36we0yZRK/YDdK3Aj1sWj2qRaItYDs8+nNDQ3mGtET3NmhyeTM3Zk60DWyIazaPLALoIp2g+snNoO0RjRoU8mSgbWzm2DaL2ihdAF+G0als4unmi9ceVY3NvvfBjbfz4polGSa5j8xT4ielwMkzUo8UBdC5KDSdGRonaK68Y4UreymhiZJBovfOhAXQuEi0MJkbGiDpJKBNA56KeucTIFNFpzaAiRk0lRmaI+gNRygNTOHs2ci4miN7migF0LuIbSYwMEMWerGPzZCQx0iYaUr0AOhdD2omRJtHzR2iQJ1O402wZaRGNzATQuYIw0eoY6RCNQ1MBdC7qvdyECFozqMgb3JVO9LAD1wwqIqFyYqRG1JGrGVSU1hlq4aRE1AMU3fpianWGAlF/oFIzqEipAStNlNMmtSeVcJIkasWR7QA6F5VuwMoRbYk9x+ZJtgErQyRuk9pT80OmAQsnKmyT2pNUAxZMNDZWM6hIos4AErW5zxnKErgBCyJ6aJTo2DyRsAFqwAKIRknJjs1TEEEasMVEPaNFqp4giVERUV+pTWpPxYmRmGj9aKFI1RPxH8XhJCJqxRptUnuioTAxEhBtg+oE0LkY2SoQPRtok9pTc8BtwHKIDLVJ7Yn4c06dkU9025QHJurlJ0Z5RMMb1AwqYiQvMbomSlOeW58qWGHjugF7SdRZVtKxeQrC5WXH6ILoxYEAOtdVA/aM6K5iKQ9M3uqOQ7Qus8tjUiQ8TYyORC37bVJ7CvykdUlUpZpBRb91xoHoodIpD0zNwcMvUa/iKQ9MxO/9JYqjW5+MIUXxgWhYF6AUaZgRjdy2hHPRUUqU1ImIJRi1XEwT+PJaqF0zojaKXUtNxaIxmrub++QpmKOd1i9XElAaGP31TPQ+j+xQQ/n/E9Zks0WyfBwwz1BZxULUWM5nrKn8caShTuStxseS+G04p572pWLo86cq6C9VvyJ1Inr5dLSz1V0U4I1PWqXrhVrurEzUnOc0arda9x67eNg69lU+RZXIi695suuk+MVmCq/68y8qPSlFIjrPBUr1qfTFpgpzWm9LhUuuSET4zwa2aol87nfUUcg41Yg80ZKJrVL/0sttYr/II6kRMQFQtjJS+gN5t7FCFq1ExI+igxby3yzvqi+kUzQlosL3jj+kI/ra6A6Sv+2UiLyipRIjJPuZPsdq5EsdNaLCVbEPsh7ucz7oripEuC3p4dUnwmO55MEBIjyXimkXiPBMxnidIOrIGJ4TRPhB4mzcIJIxPEeIJDI8V4jwEmp4zhCBMzx3iKCG5w4RXsNCySEi3AYlrS4RwTo6ThGBDM8tIojhOUYEMDzHiPC68L5zjQjfFWV4zhHhlwIPd4+oyPCqSiRaKb8TGl5ViXYCotZKdJyqEv2T/1TpoDfRyVWVyPdF/eO+IB2qLBGKRC8H9fhI1SVCTPTSNH9NVYWJyEpkeA2e4VWYCFElw6syEfISAdKac4aVJkJiw8vP8KpNhHyh4eVmeBUnKjC8vJOsOpHY8PIyvKoTiQ0P5xhe5YnEhvd2/Yu2+kQFhnflDg4QiTO87SWSC0RyhucEkZThOUGEaENA1FqdPXh2gwixpQDp7ewiOUKEQpHhPZ9meK4QIV/UBzs1PGeIkCcadxH/nq47RGLDezzGkjtEYsPDR8NziEhseCNK3CNCoWiS6HPoIBGKAIbnFhHE8BwjIivRGNH9WmrHiBD9EBDhQeAeUbHhOUckNrwn30EicYY3jBwk4r5HsFf8j4NEBIkMj9cNqzKROMPj0VaaSGx4ThKh8LNuRCiS3nmh6kSIye5IVXkiseG5SFSQ4blIJGt4t37rDbJsWM7wXCBCvozhOUEkzvCcJJIxPDeIZAzPESLECl7jdo8IhdCh984QgTM8B37DHj8DtrWWQ0RAw3PnrkMoGNSNCGZ4ThGhJsDw3CLaD22sFxGKCg2vLCLOdzuSHUJDSNEWHyURMU6JA3xT9ESFhtcrZ3JLwOmAbuWn6rCFmEh+AKLaBKQo/5G+/HCf1PBEL49gXNIEJM7AoJyljQAJV9ooXHXV2Wh5F2muNrwu4iN1ypuNRnOWod6p7oDgc2+8RXlEOfeKvNEd5e3yTXypMoVReWri5Rfb15kBGeQ91GwtlD5SfbKldzpsvxVrjnD3VtuL0BwStbDUmD4ahMuf5cLrT/1dUYhHk/Zxre76RXmbCJ15qoh63moxn9GmmXHa1GvS3TxJFtknqo+tbehN8SUB1fnv159HdYcCk10NJy3Xbxp2/SaWd2pG1Knh5H88qlMg7XdnqN8OGnXa5SRrmB12ornZfsMmRaLjTjQYP9Vit6DDyPO67uiEa7jrFq7fzmiZ6rZ7Xaa67TCIa7gLZObkNdupM5M7u6nmPSX5f+x4i2u4KzGu387Rmeq2uzeu4Q7sOEuMKhdOxH8ULzkUE1UvMfJWolEWEKKszqiOk//WDDpEeJRE1QinIEqKlgvAiPZbmN8+nEjYAK3ZBRFh3Ea3dnK2Aq4yBBLdOjGiDLoQFE6ER/ObdYxINC8KoO73pitLlCZGs9skRs2PJ/GJvb7fT97fJ/dfskRpYnSDOoNd7mV4pe79V+sANn2VJUoTo5KdnPrClOcA1P374/dUmiitM8rsGJFwIRoNddB0k0JNp9PJBuOvd3miNDHS3cASLG9WlPKk2kwOl6n1lV2r6asCUbbsrQwnh6Q8qd6//95495vsX0pEuGO/ARv4CewdmGk3I0otYZP99f2uRpTWGTur4QQKoB+ilKM7nUymk/QHvFEmShOjlT0n9wbwqeiT/TXadLuT9/Rf31/qRNluQHbCiXqgAPrRMY72t96fjQ4RHi0tlLhBCAygH3Wn6Z9/M2dI/3q9V3HvUz19mG7AhjvYay+/+vOFX7+yGEr/mnzrEmE8NPoojSHpd89Tb/g6wv1RyBmuFRurMyRqhjNNsnQBt76nmTcYIDLVgCV+Yc3A02aSZkHTP/v8zgQRxn0DiVE4K6gZxHp9/fnBDFGWGOmFEwuK33SByRRRmhhpNGCpV1gzgGWMKEuMFMOJROCUByCDRFlipBJO3gBQM8BllEhloQewZoDLMBEeydUZ4JoBLtNEaTjBG7DEh7VJpWSeCF5ngNukUrJBlNYZgLJdNeUpkh2i4gYsoE2qKEtEaZ0hbMA29VIekawRpXUG93lGcZtUQxaJcCvOdfKguE2qI5tEuQ1Y4j8aTHlyZJfougFrOOXJkW2i8zqD5b94alT2iXBnTENGKWUhHZtOeXJUAlGq/kucxC+277eDyiEqU/Uj+g8Z08IYu4agGAAAAABJRU5ErkJggg==;" vertex="1" parent="1MdoQol8Fv-7kI70BVvg-7">
          <mxGeometry x="49.849999999999994" y="89.85" width="51.82" height="60" as="geometry" />
        </mxCell>
        <mxCell id="1MdoQol8Fv-7kI70BVvg-9" value="Redis DB&lt;br&gt;container" style="image;sketch=0;aspect=fixed;html=1;points=[];align=center;fontSize=12;image=img/lib/mscae/Cache_Redis_Product.svg;" vertex="1" parent="1MdoQol8Fv-7kI70BVvg-7">
          <mxGeometry x="379.85" y="98.85" width="50" height="42" as="geometry" />
        </mxCell>
        <mxCell id="1MdoQol8Fv-7kI70BVvg-18" value="" style="group" vertex="1" connectable="0" parent="1MdoQol8Fv-7kI70BVvg-7">
          <mxGeometry x="219.85000000000002" y="74.35" width="90" height="91" as="geometry" />
        </mxCell>
        <mxCell id="1MdoQol8Fv-7kI70BVvg-23" style="edgeStyle=orthogonalEdgeStyle;rounded=0;orthogonalLoop=1;jettySize=auto;html=1;" edge="1" parent="1MdoQol8Fv-7kI70BVvg-18" source="1MdoQol8Fv-7kI70BVvg-16">
          <mxGeometry relative="1" as="geometry">
            <mxPoint x="160" y="46" as="targetPoint" />
          </mxGeometry>
        </mxCell>
        <mxCell id="1MdoQol8Fv-7kI70BVvg-16" value="" style="shape=image;html=1;verticalAlign=top;verticalLabelPosition=bottom;labelBackgroundColor=#ffffff;imageAspect=0;aspect=fixed;image=https://cdn0.iconfinder.com/data/icons/long-shadow-web-icons/512/python-128.png" vertex="1" parent="1MdoQol8Fv-7kI70BVvg-18">
          <mxGeometry x="20.00000000000003" y="21" width="50" height="50" as="geometry" />
        </mxCell>
        <mxCell id="1MdoQol8Fv-7kI70BVvg-10" value="" style="shape=image;html=1;verticalAlign=top;verticalLabelPosition=bottom;labelBackgroundColor=#ffffff;imageAspect=0;aspect=fixed;image=https://cdn0.iconfinder.com/data/icons/long-shadow-web-icons/512/python-128.png" vertex="1" parent="1MdoQol8Fv-7kI70BVvg-7">
          <mxGeometry x="239.85" y="39.85" width="50" height="50" as="geometry" />
        </mxCell>
        <mxCell id="1MdoQol8Fv-7kI70BVvg-17" value="Python app&lt;br&gt;containers" style="shape=image;html=1;verticalAlign=top;verticalLabelPosition=bottom;labelBackgroundColor=#ffffff;imageAspect=0;aspect=fixed;image=https://cdn0.iconfinder.com/data/icons/long-shadow-web-icons/512/python-128.png" vertex="1" parent="1MdoQol8Fv-7kI70BVvg-7">
          <mxGeometry x="239.85" y="149.85" width="50" height="50" as="geometry" />
        </mxCell>
        <mxCell id="1MdoQol8Fv-7kI70BVvg-22" style="rounded=0;orthogonalLoop=1;jettySize=auto;html=1;entryX=-0.06;entryY=0.265;entryDx=0;entryDy=0;entryPerimeter=0;" edge="1" parent="1MdoQol8Fv-7kI70BVvg-7" source="1MdoQol8Fv-7kI70BVvg-10" target="1MdoQol8Fv-7kI70BVvg-9">
          <mxGeometry relative="1" as="geometry" />
        </mxCell>
        <mxCell id="1MdoQol8Fv-7kI70BVvg-24" style="rounded=0;orthogonalLoop=1;jettySize=auto;html=1;" edge="1" parent="1MdoQol8Fv-7kI70BVvg-7" source="1MdoQol8Fv-7kI70BVvg-17">
          <mxGeometry relative="1" as="geometry">
            <mxPoint x="376.85" y="129.85" as="targetPoint" />
          </mxGeometry>
        </mxCell>
        <mxCell id="1MdoQol8Fv-7kI70BVvg-25" style="rounded=0;orthogonalLoop=1;jettySize=auto;html=1;entryX=0.5;entryY=0;entryDx=0;entryDy=0;" edge="1" parent="1" source="1MdoQol8Fv-7kI70BVvg-17" target="1MdoQol8Fv-7kI70BVvg-4">
          <mxGeometry relative="1" as="geometry" />
        </mxCell>
        <mxCell id="1MdoQol8Fv-7kI70BVvg-26" style="rounded=0;orthogonalLoop=1;jettySize=auto;html=1;" edge="1" parent="1" source="1MdoQol8Fv-7kI70BVvg-17" target="1MdoQol8Fv-7kI70BVvg-2">
          <mxGeometry relative="1" as="geometry" />
        </mxCell>
        <mxCell id="1MdoQol8Fv-7kI70BVvg-27" style="edgeStyle=orthogonalEdgeStyle;rounded=0;orthogonalLoop=1;jettySize=auto;html=1;entryX=0.5;entryY=0;entryDx=0;entryDy=0;" edge="1" parent="1" source="1MdoQol8Fv-7kI70BVvg-17" target="1MdoQol8Fv-7kI70BVvg-3">
          <mxGeometry relative="1" as="geometry" />
        </mxCell>
        <mxCell id="1MdoQol8Fv-7kI70BVvg-28" value="&amp;nbsp;docker-compose&amp;nbsp;" style="text;html=1;align=center;verticalAlign=middle;resizable=0;points=[];autosize=1;strokeColor=none;fillColor=none;labelBackgroundColor=default;" vertex="1" parent="1">
          <mxGeometry x="435" y="184" width="120" height="30" as="geometry" />
        </mxCell>
      </root>
    </mxGraphModel>
  </diagram>
</mxfile>
